<svg width="30" height="30" viewBox="0 0 30 30" fill="none" xmlns="http://www.w3.org/2000/svg">
<g clip-path="url(#clip0_120_1111)">
<path d="M9.26598 15C7.5786 15.0558 6.19848 15.7701 5.12563 17.1429H3.03202C2.17791 17.1429 1.45921 16.9169 0.875918 16.4648C0.292624 16.0128 0.000976562 15.3516 0.000976562 14.481C0.000976562 10.5413 0.646767 8.57143 1.93835 8.57143C2.00084 8.57143 2.22739 8.68862 2.61799 8.92299C3.00859 9.15737 3.51637 9.39453 4.14133 9.63449C4.76628 9.87444 5.38603 9.99442 6.00058 9.99442C6.69845 9.99442 7.39111 9.86607 8.07856 9.60938C8.02648 10.0223 8.00044 10.3906 8.00044 10.7143C8.00044 12.2656 8.42229 13.6942 9.26598 15ZM25.9992 25.6641C25.9992 27.0033 25.6191 28.0608 24.8587 28.8365C24.0983 29.6122 23.088 30 21.8276 30H8.17231C6.91197 30 5.90162 29.6122 5.14126 28.8365C4.38089 28.0608 4.00071 27.0033 4.00071 25.6641C4.00071 25.0725 4.01894 24.495 4.05539 23.9314C4.09185 23.3677 4.16476 22.7595 4.27413 22.1066C4.3835 21.4537 4.52151 20.8482 4.68816 20.2902C4.85482 19.7321 5.07876 19.1881 5.35999 18.6579C5.64123 18.1278 5.96412 17.6758 6.32868 17.3019C6.69324 16.928 7.13852 16.6295 7.66453 16.4062C8.19053 16.183 8.77122 16.0714 9.4066 16.0714C9.51076 16.0714 9.7347 16.1914 10.0784 16.4314C10.4222 16.6713 10.8023 16.9392 11.219 17.2349C11.6356 17.5307 12.1929 17.7985 12.8907 18.0385C13.5886 18.2785 14.2917 18.3984 15 18.3984C15.7083 18.3984 16.4113 18.2785 17.1092 18.0385C17.8071 17.7985 18.3643 17.5307 18.781 17.2349C19.1976 16.9392 19.5778 16.6713 19.9215 16.4314C20.2652 16.1914 20.4892 16.0714 20.5934 16.0714C21.2287 16.0714 21.8094 16.183 22.3354 16.4062C22.8614 16.6295 23.3067 16.928 23.6713 17.3019C24.0358 17.6758 24.3587 18.1278 24.64 18.6579C24.9212 19.1881 25.1451 19.7321 25.3118 20.2902C25.4784 20.8482 25.6165 21.4537 25.7258 22.1066C25.8352 22.7595 25.9081 23.3677 25.9446 23.9314C25.981 24.495 25.9992 25.0725 25.9992 25.6641ZM10.0003 4.28571C10.0003 5.46875 9.60971 6.47879 8.82851 7.31585C8.04731 8.1529 7.10467 8.57143 6.00058 8.57143C4.89648 8.57143 3.95384 8.1529 3.17264 7.31585C2.39144 6.47879 2.00084 5.46875 2.00084 4.28571C2.00084 3.10268 2.39144 2.09263 3.17264 1.25558C3.95384 0.418527 4.89648 0 6.00058 0C7.10467 0 8.04731 0.418527 8.82851 1.25558C9.60971 2.09263 10.0003 3.10268 10.0003 4.28571ZM20.9996 10.7143C20.9996 12.4888 20.4137 14.0039 19.2419 15.2595C18.0701 16.5151 16.6561 17.1429 15 17.1429C13.3438 17.1429 11.9299 16.5151 10.7581 15.2595C9.58628 14.0039 9.00038 12.4888 9.00038 10.7143C9.00038 8.93973 9.58628 7.42466 10.7581 6.16908C11.9299 4.9135 13.3438 4.28571 15 4.28571C16.6561 4.28571 18.0701 4.9135 19.2419 6.16908C20.4137 7.42466 20.9996 8.93973 20.9996 10.7143ZM29.999 14.481C29.999 15.3516 29.7073 16.0128 29.124 16.4648C28.5407 16.9169 27.822 17.1429 26.9679 17.1429H24.8743C23.8015 15.7701 22.4214 15.0558 20.734 15C21.5777 13.6942 21.9995 12.2656 21.9995 10.7143C21.9995 10.3906 21.9735 10.0223 21.9214 9.60938C22.6088 9.86607 23.3015 9.99442 23.9994 9.99442C24.6139 9.99442 25.2337 9.87444 25.8586 9.63449C26.4836 9.39453 26.9914 9.15737 27.382 8.92299C27.7726 8.68862 27.9991 8.57143 28.0616 8.57143C29.3532 8.57143 29.999 10.5413 29.999 14.481ZM27.9991 4.28571C27.9991 5.46875 27.6085 6.47879 26.8273 7.31585C26.0461 8.1529 25.1035 8.57143 23.9994 8.57143C22.8953 8.57143 21.9526 8.1529 21.1714 7.31585C20.3902 6.47879 19.9996 5.46875 19.9996 4.28571C19.9996 3.10268 20.3902 2.09263 21.1714 1.25558C21.9526 0.418527 22.8953 0 23.9994 0C25.1035 0 26.0461 0.418527 26.8273 1.25558C27.6085 2.09263 27.9991 3.10268 27.9991 4.28571Z" fill="#004E98"/>
</g>
<defs>
<clipPath id="clip0_120_1111">
<rect width="30" height="30" fill="white"/>
</clipPath>
</defs>
</svg>
