<svg width="30" height="30" viewBox="0 0 30 30" fill="none" xmlns="http://www.w3.org/2000/svg">
<path d="M18.75 23.91C19.8163 24.2192 20.921 24.3758 22.0312 24.375C23.8169 24.3792 25.5796 23.972 27.1825 23.185C27.1858 23.1133 27.1875 23.0413 27.1875 22.9688C27.1876 21.8661 26.8342 20.7925 26.1792 19.9054C25.5243 19.0184 24.6022 18.3647 23.5484 18.0403C22.4945 17.7159 21.3645 17.7378 20.324 18.1029C19.2836 18.468 18.3876 19.157 17.7675 20.0688M18.75 23.91V23.9062C18.75 22.515 18.3937 21.2063 17.7675 20.0688M18.75 23.91V24.0425C16.3448 25.4924 13.5884 26.2559 10.78 26.25C7.86625 26.25 5.14 25.4437 2.8125 24.0425L2.81125 23.9062C2.81029 22.1368 3.39827 20.4174 4.48248 19.0191C5.56669 17.6207 7.08547 16.623 8.79936 16.1832C10.5133 15.7435 12.3248 15.8866 13.9483 16.5901C15.5719 17.2936 16.9164 18.5175 17.7675 20.0688M15 7.96875C15 9.08763 14.5555 10.1607 13.7644 10.9519C12.9732 11.743 11.9001 12.1875 10.7812 12.1875C9.66237 12.1875 8.58931 11.743 7.79814 10.9519C7.00697 10.1607 6.5625 9.08763 6.5625 7.96875C6.5625 6.84987 7.00697 5.77681 7.79814 4.98564C8.58931 4.19447 9.66237 3.75 10.7812 3.75C11.9001 3.75 12.9732 4.19447 13.7644 4.98564C14.5555 5.77681 15 6.84987 15 7.96875ZM25.3125 10.7812C25.3125 11.6515 24.9668 12.4861 24.3514 13.1014C23.7361 13.7168 22.9015 14.0625 22.0312 14.0625C21.161 14.0625 20.3264 13.7168 19.7111 13.1014C19.0957 12.4861 18.75 11.6515 18.75 10.7812C18.75 9.91101 19.0957 9.07641 19.7111 8.46106C20.3264 7.8457 21.161 7.5 22.0312 7.5C22.9015 7.5 23.7361 7.8457 24.3514 8.46106C24.9668 9.07641 25.3125 9.91101 25.3125 10.7812Z" fill="#004E98"/>
</svg>
